<?xml version="1.0" encoding="UTF-8" standalone="no"?>
<!-- Created with Inkscape (http://www.inkscape.org/) -->

<svg
   xmlns:dc="http://purl.org/dc/elements/1.1/"
   xmlns:cc="http://creativecommons.org/ns#"
   xmlns:rdf="http://www.w3.org/1999/02/22-rdf-syntax-ns#"
   xmlns:svg="http://www.w3.org/2000/svg"
   xmlns="http://www.w3.org/2000/svg"
   xmlns:sodipodi="http://sodipodi.sourceforge.net/DTD/sodipodi-0.dtd"
   xmlns:inkscape="http://www.inkscape.org/namespaces/inkscape"
   width="32px"
   height="32px"
   id="svg3127"
   version="1.1"
   inkscape:version="0.48.4 r9939"
   sodipodi:docname="New document 4">
  <defs
     id="defs3129" />
  <sodipodi:namedview
     id="base"
     pagecolor="#ffffff"
     bordercolor="#666666"
     borderopacity="1.0"
     inkscape:pageopacity="0.0"
     inkscape:pageshadow="2"
     inkscape:zoom="11.313709"
     inkscape:cx="15.390448"
     inkscape:cy="16.658662"
     inkscape:current-layer="layer1"
     showgrid="true"
     inkscape:grid-bbox="true"
     inkscape:document-units="px"
     inkscape:window-width="1299"
     inkscape:window-height="744"
     inkscape:window-x="67"
     inkscape:window-y="24"
     inkscape:window-maximized="1" />
  <metadata
     id="metadata3132">
    <rdf:RDF>
      <cc:Work
         rdf:about="">
        <dc:format>image/svg+xml</dc:format>
        <dc:type
           rdf:resource="http://purl.org/dc/dcmitype/StillImage" />
        <dc:title></dc:title>
      </cc:Work>
    </rdf:RDF>
  </metadata>
  <g
     id="layer1"
     inkscape:label="Layer 1"
     inkscape:groupmode="layer">
    <path
       style="fill:#ff0000"
       id="path3915"
       d="m 14.361645,8.9362819 c -0.08851,0.3082588 -0.158741,0.6215204 -0.263178,0.9251724 -0.09142,0.2658047 -0.195084,0.5272477 -0.290184,0.7917577 -0.299058,0.829616 -0.562254,1.670996 -0.81693,2.515051 -0.240354,0.879356 -0.473239,1.76085 -0.703176,2.643018 -0.245826,0.880814 -0.45446,1.772136 -0.713535,2.649051 -0.261541,0.716461 -0.489725,1.45224 -0.837643,2.133638 -0.06003,0.117562 -0.127784,0.231014 -0.191676,0.34652 -0.390636,0.64811 -0.8786329,1.226954 -1.3841162,1.786944 -0.5247219,0.573978 -1.1857173,0.992247 -1.8252121,1.424404 -0.7175941,0.476073 -1.4206732,0.97354 -2.1412945,1.445031 -0.5210714,0.323306 -1.049814,0.63518 -1.5969696,0.912365 l 0.6966519,-0.558008 0,0 c 0.8558888,-0.436511 -1.0192989,0.595153 0.1012184,-0.04272 0.7218674,-0.467033 1.4216481,-0.966815 2.1380288,-1.44216 0.6355838,-0.429134 1.2948977,-0.840436 1.8248807,-1.401879 0.5078901,-0.556113 0.9975115,-1.130531 1.3970721,-1.771468 0.06596,-0.114371 0.1358486,-0.226564 0.1978788,-0.343112 0.3595117,-0.675488 0.5937447,-1.40957 0.8539967,-2.126255 0.262872,-0.873501 0.45989,-1.765675 0.708678,-2.643446 0.230109,-0.883697 0.473729,-1.763696 0.704597,-2.647197 0.252733,-0.844585 0.511399,-1.686965 0.810587,-2.5166 0.191379,-0.550514 0.403787,-1.096084 0.487763,-1.6764813 z"
       inkscape:connector-curvature="0"
       sodipodi:nodetypes="csccccccccccccccccscccccc" />
    <path
       style="fill:#ff0000"
       id="path3917"
       d="m 6.0207543,9.320069 c -0.1416113,0.4355064 -0.2537431,0.879048 -0.3356459,1.329487 -0.053819,0.324768 -0.08408,0.652781 -0.093657,0.981688 -0.00611,0.21898 -0.00517,0.438114 -0.00287,0.657149 0.00266,0.03497 0.00193,0.112124 0.023903,0.14934 0.00323,0.0055 0.024355,8.69e-4 0.01869,0.0037 -0.2642151,0.13413 -0.5287759,0.267882 -0.7979172,0.391831 -0.024712,0.01138 0.043404,-0.0332 0.062103,-0.05296 0.023911,-0.02527 0.043438,-0.05436 0.065157,-0.08154 0.1760499,-0.240096 0.3171757,-0.50333 0.4609949,-0.763335 C 5.6044712,11.632626 5.7769672,11.32357 5.9663612,11.02468 6.18457,10.692859 6.4186405,10.372001 6.6430375,10.044386 6.883241,9.7058513 7.1504211,9.3864583 7.4330909,9.0827491 7.8220322,8.700425 8.2268651,8.3342417 8.6465821,7.9860802 9.4878677,7.2821871 10.472623,6.7771058 11.471809,6.3362487 12.102193,6.094701 12.73006,5.8391054 13.379879,5.6527389 c 0.132891,-0.038113 0.267624,-0.069479 0.401437,-0.1042188 0.893923,-0.1974075 1.812778,-0.2256173 2.723886,-0.2691597 0.935588,-0.036994 1.872005,-0.047659 2.808237,-0.051873 0.718602,0.014454 1.44253,-0.02988 2.159326,0.040542 0.116155,0.011412 0.231402,0.030697 0.347103,0.046046 0.407837,0.064333 0.810678,0.1669613 1.196067,0.3161458 0.159328,0.061676 0.324284,0.1413849 0.479315,0.2135485 0.393351,0.1736082 0.729111,0.4360006 1.052153,0.7144004 0.155752,0.1711662 0.315089,0.3454873 0.430786,0.5475224 0.03729,0.065123 0.167857,0.3303485 0.198755,0.3924962 0.181609,0.3568296 0.299849,0.7360177 0.37352,1.1280612 0.04604,0.2834806 0.05625,0.5701227 0.05753,0.8566889 -6.23e-4,0.3070313 -0.0038,0.6140452 -0.004,0.9210832 0.0032,0.351073 -0.111372,0.679136 -0.247832,0.997058 -0.145896,0.352414 -0.339644,0.674285 -0.558924,0.9849 -0.189944,0.257035 -0.426511,0.469806 -0.704798,0.627887 -1.060288,0.6023 -0.699571,0.455886 -1.385638,0.694181 -0.12595,0.0391 -0.250531,0.08292 -0.377851,0.117296 -0.256577,0.06928 -0.652436,0.147593 -0.908438,0.197453 -0.552044,0.107517 -1.104756,0.204515 -1.660375,0.291452 -0.200549,0.03023 -0.401109,0.06038 -0.601648,0.09068 -0.503673,0.0761 -0.748123,0.117249 -1.255425,0.178574 -0.624623,0.07551 -1.250707,0.122077 -1.878178,0.165224 -0.505752,0.029 -1.01146,0.06272 -1.518364,0.04988 -0.229288,-0.0058 -0.541611,-0.01962 -0.7693,-0.07157 -0.117183,-0.02673 -0.228963,-0.07323 -0.343444,-0.109842 -0.763282,-0.311973 -1.298273,-0.884148 -1.820648,-1.498353 -0.249757,-0.332568 -0.498997,-0.667363 -0.707809,-1.027884 -0.197005,-0.340136 -0.359417,-0.698497 -0.519477,-1.056835 -0.6122375,-1.5854235 0.539819,-2.0611507 0.39439,-2.4874207 l 0.139221,1.407564 0,0 c 0.131847,0.4268647 0.05841,0.2086497 0.222421,0.6539317 0.157244,0.355828 0.31575,0.710792 0.50961,1.048777 0.149381,0.260439 0.273282,0.43995 0.449398,0.684101 0.08125,0.112641 0.16598,0.222735 0.24897,0.334103 0.517669,0.600637 1.046905,1.160044 1.805593,1.449993 0.111475,0.03309 0.220797,0.07457 0.334424,0.09927 0.223188,0.04854 0.522862,0.06551 0.747492,0.07303 0.496964,0.01664 0.9932,-0.01257 1.489389,-0.0364 0.523804,-0.0338 0.699846,-0.04076 1.229239,-0.09337 0.636305,-0.06324 1.267103,-0.157307 1.898794,-0.25498 0.201431,-0.03115 0.402864,-0.06228 0.604296,-0.09342 0.560452,-0.09177 1.118338,-0.192076 1.674556,-0.30713 0.292042,-0.06041 0.630255,-0.132664 0.918467,-0.216184 0.128811,-0.03733 0.254886,-0.08352 0.382329,-0.125278 0.543574,-0.207737 0.385395,-0.172192 -0.131695,0.164917 -0.07559,0.04928 0.157381,-0.08875 0.232014,-0.139474 0.119735,-0.08137 0.237545,-0.184831 0.336648,-0.290637 0.04761,-0.05083 0.09003,-0.106287 0.135049,-0.15943 0.114323,-0.156971 0.229607,-0.31412 0.325435,-0.483462 0.07158,-0.126489 0.09337,-0.187364 0.1563,-0.31891 0.02611,-0.05458 0.05347,-0.108545 0.0802,-0.162818 0.135059,-0.306257 0.262636,-0.621107 0.260775,-0.961984 0.0014,-0.306099 0.0014,-0.612192 4.33e-4,-0.9182881 -0.0026,-0.2826132 -0.0044,-0.5662221 -0.0437,-0.8466843 C 24.683118,8.6682841 24.569265,8.2950324 24.395135,7.9439976 24.225302,7.6167431 24.04217,7.2991224 23.777098,7.0376226 23.463508,6.7623937 23.130168,6.5121686 22.748355,6.3377489 22.59809,6.2662363 22.437444,6.1864894 22.282266,6.1265835 21.903067,5.9801953 21.505335,5.8852823 21.105029,5.8191275 20.99211,5.8040586 20.879615,5.7853694 20.766271,5.7739206 20.05469,5.7020441 19.336448,5.7375513 18.622869,5.7297252 c -0.933991,0.0048 -1.868298,0.00837 -2.801502,0.051582 -0.911651,0.045386 -1.831517,0.078992 -2.723187,0.2911665 -0.783626,0.2128732 -1.5476,0.488801 -2.298875,0.796691 -0.130135,0.058166 -0.261218,0.114259 -0.390406,0.1744994 -0.131739,0.06143 -0.289306,0.2930603 -0.392278,0.1904657 C 9.916658,7.1345328 10.271281,7.105374 10.376796,7.011679 10.476837,6.9228458 10.14451,7.1449188 10.03331,7.2193097 9.9293502,7.2888579 9.8312551,7.3668377 9.7320455,7.4430094 9.641354,7.5126411 9.5531402,7.5854418 9.4636876,7.656658 9.0483528,7.9986079 8.6520451,8.3631086 8.2639865,8.7356752 7.9805101,9.0328934 7.717946,9.3498379 7.4756952,9.6815802 7.2501849,10.007068 7.0167331,10.32706 6.7999684,10.658491 6.6061626,10.95309 6.4402543,11.264205 6.2530237,11.563042 c -0.1411562,0.259957 -0.279163,0.522443 -0.4424487,0.769435 -0.019766,0.02814 -0.040476,0.05565 -0.059299,0.08443 -0.015905,0.02432 -0.019495,0.06052 -0.044818,0.07478 -0.5873646,0.330712 -0.898974,0.761906 -0.9421862,0.217167 3.724e-4,-0.220404 -0.00301,-0.440824 0.00166,-0.661204 0.017535,-0.338132 0.057779,-0.674167 0.1176667,-1.007522 0.079557,-0.446596 0.1961772,-0.883053 0.2904809,-1.3262482 z"
       inkscape:connector-curvature="0"
       sodipodi:nodetypes="cccccccccccccccscccscscccccccccsccscsscccccscccccsccccscsccsccscscsscccccccscsccccsssssccccccccccccc" />
    <rect
       style="fill:#008080"
       id="rect3927"
       width="31.983919"
       height="31.952345"
       x="0.063146792"
       y="0.079228573" />
    <path
       style="fill:#008080"
       id="path3929"
       d="m 13.427875,11.210899 c -0.02177,0.09723 -0.04402,0.194359 -0.06531,0.2917 -0.09147,0.418418 -0.114447,0.585201 -0.256673,1.017097 -0.25707,0.780641 -0.609896,1.525508 -0.953459,2.270202 -0.401305,0.888655 -0.863627,1.746887 -1.305884,2.615024 -0.37067,0.727614 -0.721271,1.466179 -1.0795839,2.199946 -0.3403058,0.712211 -0.6479519,1.429193 -1.1345455,2.055479 -0.347605,0.411074 -0.7622703,0.759942 -1.1817992,1.094803 -0.5128332,0.367298 -1.000699,0.779222 -1.549154,1.094592 -0.4712405,0.270971 -0.9481741,0.531918 -1.4222612,0.797877 -0.413969,0.178547 -0.849196,0.436647 -1.3181025,0.344815 -0.055411,-0.01085 -0.107851,-0.03348 -0.1617765,-0.05022 -0.3256692,-0.207633 -0.5297217,-0.542806 -0.679236,-0.890477 -0.1102758,-0.309417 -0.137568,-0.636621 9.24e-5,-0.943623 0.039632,-0.08838 0.092866,-0.170019 0.1392992,-0.255029 0.4719863,-0.687588 0.9044365,-1.397347 1.2696753,-2.147161 0.3315572,-0.734681 0.6733982,-1.464657 1.0051098,-2.199265 0.1702627,-0.364823 0.31494,-0.740673 0.4920819,-1.102256 0,0 1.1862896,-0.534874 1.1862896,-0.534874 l 0,0 C 6.2168493,17.230103 6.0658837,17.611505 5.8869378,17.980484 5.5444235,18.71588 5.1951537,19.44823 4.8655793,20.189559 4.5122125,20.936757 4.0914326,21.645297 3.6298426,22.330876 3.3960123,22.727692 3.304512,22.962421 3.458683,23.413547 c 0.1276132,0.314199 0.3025863,0.633245 0.6180884,0.789021 0.5137046,0.119047 0.9275392,-0.136231 1.3846953,-0.342295 -0.2439407,0.147955 -0.4872866,0.296895 -0.7318219,0.443866 -0.1134577,0.06819 0.2276546,-0.135289 0.3385824,-0.207522 0.4139898,-0.269577 0.800911,-0.578995 1.2010213,-0.868081 0.4169659,-0.327222 0.822515,-0.67472 1.1824985,-1.064461 0.1445154,-0.171928 0.2207186,-0.2533 0.3473313,-0.443734 0.3419541,-0.514322 0.5911214,-1.084284 0.8846643,-1.625607 0.3805543,-0.737922 0.7428212,-1.485176 1.1241286,-2.222627 0.4453338,-0.861278 0.9077828,-1.713984 1.2965108,-2.603534 0.503106,-1.115229 1.035791,-2.245991 1.144347,-3.481196 0,0 1.179146,-0.576478 1.179146,-0.576478 z"
       inkscape:connector-curvature="0" />
    <path
       style="fill:#ffff00"
       id="path3933"
       d="m 14.246693,11.600137 c -0.05785,0.31073 -0.06221,0.627463 -0.09128,0.941307 -0.03789,0.410162 -0.08996,0.818941 -0.14627,1.226943 -0.06273,0.474493 -0.0971,0.950492 -0.188832,1.420716 -0.08373,0.436953 -0.199829,0.866788 -0.286861,1.302959 -0.06719,0.383639 -0.184216,0.755658 -0.265981,1.135922 -0.08512,0.353023 -0.158068,0.710034 -0.258118,1.059247 -0.120385,0.327466 -0.213462,0.664552 -0.342743,0.988559 -0.153223,0.348906 -0.30388,0.699178 -0.441731,1.054488 -0.165418,0.366228 -0.344765,0.727677 -0.542723,1.077513 -0.209295,0.340917 -0.446093,0.66392 -0.676834,0.99045 -0.250461,0.321103 -0.480061,0.657823 -0.665212,1.020789 -0.122239,0.291744 -0.29162,0.552749 -0.4895234,0.797708 -0.1856335,0.203451 -0.3334392,0.436455 -0.5006792,0.654469 -0.1574261,0.200755 -0.3342549,0.384937 -0.5119842,0.56754 -0.162036,0.178977 -0.3473626,0.332411 -0.5318932,0.486966 -0.4741948,0.387045 -1.0469386,0.654912 -1.5733722,0.947716 -0.083184,0.04627 -0.1728225,0.08017 -0.2563203,0.125866 -0.2351312,0.139967 -0.4915374,0.205272 -0.7598895,0.239433 -0.2440277,0.02318 -0.4896478,0.01713 -0.7344508,0.01667 C 4.741312,27.655149 4.500634,27.65403 4.2599481,27.654261 4.013052,27.66417 3.7865113,27.60316 3.5786936,27.47314 3.3596327,27.320643 3.2379376,27.085608 3.1248094,26.851558 3.0335943,26.599596 2.8997738,26.36916 2.7745655,26.13344 2.6254348,25.862936 2.5504665,25.567102 2.488167,25.267552 2.4216189,25.002935 2.3190102,24.747241 2.3279227,24.471344 c 0.011577,-0.182832 0.090641,-0.328738 0.203483,-0.467308 l 1.2154877,-0.51124 0.7590775,-0.580471 c -0.1135132,0.114442 -0.9780835,0.803788 -0.9986039,0.972114 -0.045258,0.262468 0.072602,0.513419 0.1313246,0.765966 0.06325,0.286735 0.1268016,0.572433 0.2726493,0.831512 0.1278659,0.236541 0.2629646,0.468849 0.3575003,0.721352 0.098589,0.211849 0.20596,0.425485 0.4105663,0.553526 0.2032847,0.101286 0.4186461,0.135359 0.6458533,0.123877 0.2393586,0.0014 0.4787174,0.0025 0.7180772,0.0036 0.2419325,-5.86e-4 0.4851807,1.92e-4 0.7251523,-0.0346 0.2585606,-0.04671 0.5000256,-0.136984 0.7280034,-0.269149 0.4263869,-0.21134 1.0355063,-0.583659 -0.745228,0.459544 -0.079635,0.04665 0.1603007,-0.0921 0.2355302,-0.145566 0.034054,-0.0242 0.066721,-0.0503 0.1000809,-0.07545 0.1819834,-0.156257 0.3767503,-0.297832 0.5381946,-0.476508 0.1778784,-0.180036 0.3559334,-0.36044 0.5183341,-0.554808 0.174409,-0.215367 0.3196408,-0.45232 0.5029705,-0.659518 0.2036491,-0.235609 0.3875473,-0.48364 0.5093111,-0.773022 0.1800805,-0.370689 0.401299,-0.719879 0.6603123,-1.040842 0.2315336,-0.323368 0.4597376,-0.649299 0.6812896,-0.979569 0.204235,-0.340287 0.371061,-0.701463 0.547222,-1.056789 0.136671,-0.356612 0.287539,-0.707171 0.439124,-1.057628 0.140256,-0.315862 0.220189,-0.653677 0.345406,-0.975744 0.114605,-0.34263 0.176044,-0.701003 0.268398,-1.050018 0.07505,-0.382586 0.197805,-0.752742 0.270348,-1.135999 0.0801,-0.439607 0.209207,-0.868272 0.292051,-1.307478 0.100599,-0.466493 0.13147,-0.938964 0.190555,-1.411575 0.05245,-0.405424 0.102344,-0.811191 0.141107,-1.218101 0.02708,-0.31204 0.03349,-0.625514 0.06723,-0.937076 l 0.964701,-2.102368 z"
       inkscape:connector-curvature="0"
       sodipodi:nodetypes="cccccccccccccccccccccccccccccccccccccccccccccccccccccccccc" />
    <path
       style="fill:#ffff00"
       id="path3965"
       d="m 7.0613608,10.508971 c -0.3364737,1.51201 -0.2845948,1.832771 -0.503458,2.690892 -0.2571871,0.950512 0.5170397,1.691459 0.202474,2.625592 -0.011465,0.036 -8.01e-4,0.09071 -0.034395,0.10801 -0.384724,0.198063 -0.7703573,0.411121 -1.1887122,0.521669 -0.072361,0.01912 0.027144,-0.147348 0.046127,-0.219746 0.1170492,-0.446411 0.2757439,-0.882232 0.4285793,-1.31704 C 6.5319602,13.651513 7.1404347,12.420487 7.786459,11.213523 8.3797474,10.097346 9.0873587,9.052164 9.9118355,8.0952964 10.540032,7.4294082 11.128372,6.7062707 11.894138,6.1890203 c 0.16641,-0.1124043 0.345331,-0.2050714 0.517997,-0.3076072 1.028157,-0.659806 2.106986,-1.1219093 3.275008,-1.4379113 0.327368,-0.088568 0.755021,-0.1750508 1.085588,-0.2455888 1.07533,-0.2060735 2.170406,-0.2729483 3.262026,-0.3258953 0.53378,-0.026791 1.068249,-0.032212 1.602588,-0.030167 0.4449,-0.022391 0.788734,0.054644 1.178612,0.2624397 0.414843,0.2735706 0.639962,0.6939998 0.831098,1.138053 0.301316,0.8657536 0.32244,1.7966496 0.359659,2.7037428 0.0286,1.0842153 0.02507,2.1708208 -0.09937,3.2490198 -0.09502,0.83374 -0.366362,1.629116 -0.832725,2.328778 -0.08893,0.133413 -0.190518,0.257937 -0.285777,0.386905 -0.554461,0.689148 -1.168925,1.3323 -1.90777,1.826237 -0.181885,0.121594 -0.373981,0.227173 -0.560972,0.340759 -1.714674,1.12592 -3.621706,1.716706 -5.559348,2.312469 -1.260179,0.385897 -2.541658,0.694721 -3.812405,1.042681 -0.442437,0.118037 -0.233041,0.06416 -0.627886,0.16282 l 1.018715,-0.777663 0,0 c 0.376146,-0.08746 0.176282,-0.03964 0.599337,-0.144536 1.248941,-0.320084 2.506287,-0.610767 3.73867,-0.991924 0.833825,-0.257499 1.670883,-0.511501 2.487867,-0.819732 0.254332,-0.09595 0.506122,-0.198748 0.755951,-0.30588 0.228551,-0.09801 0.433425,-0.26934 0.678856,-0.309399 0.158677,-0.0259 -0.268919,0.176291 -0.403379,0.264436 0.185244,-0.108909 0.375619,-0.209526 0.555732,-0.326725 0.735197,-0.478388 1.343684,-1.109435 1.897717,-1.783442 0.09774,-0.125605 0.202108,-0.24632 0.293216,-0.376815 0.475786,-0.681473 0.758136,-1.458617 0.858284,-2.282402 0.02188,-0.167792 0.04905,-0.334978 0.06563,-0.503377 0.08911,-0.905389 0.06182,-1.8221851 0.04795,-2.7299025 C 22.873428,7.6213032 22.847356,6.7104289 22.532549,5.8693564 22.347995,5.454123 22.127606,5.0597824 21.726046,4.819084 c -0.3765,-0.1896577 -0.715595,-0.2355852 -1.13672,-0.2163606 -0.520744,-0.00163 -1.041565,-0.00654 -1.562205,0.00776 -1.081447,0.03662 -2.165485,0.1065348 -3.227446,0.3267464 -0.733169,0.1624604 -1.435226,0.4230701 -2.166476,0.6016094 -0.155631,0.037998 -0.220029,0.181564 -0.560855,0.2328675 -0.189492,0.028524 0.315833,-0.2170948 0.47375,-0.3256406 -0.173954,0.097802 -0.227945,0.248257 -0.577115,0.4591656 -0.787138,0.4754547 -1.296228,1.0570138 -1.92628,1.712739 -0.287946,0.3247066 -0.454094,0.5006665 -0.720462,0.8487092 -0.5443145,0.7112124 -1.0114457,1.4763737 -1.4465786,2.2579701 -0.6452686,1.193574 -1.2502765,2.413233 -1.7546416,3.673578 -0.1366696,0.418168 -0.2816228,0.83752 -0.37211,1.269083 -0.01292,0.06162 0.025638,0.151978 -0.026696,0.186975 -0.3729141,0.249384 -0.7822993,0.441707 -1.190772,0.627199 -0.03977,0.01806 0.041889,-0.07666 0.062834,-0.114989 0.3987446,-0.918702 0.1035555,-2.174235 0.3665828,-3.136457 0.023965,-2.972797 0.5335371,-3.6752786 0.5518754,-4.5341986 z"
       inkscape:connector-curvature="0"
       sodipodi:nodetypes="cccccscccscscccccccccscccccccccsscscsccccccccsscscsccscscccc" />
    <path
       style="fill:#ffff00"
       id="path3967"
       d="m 17.647754,19.796414 c 0.0056,0.378477 -0.07218,0.748634 -0.142401,1.11846 -0.07936,0.500546 -0.242567,0.976029 -0.43231,1.443629 -0.246724,0.536064 -0.517111,1.059153 -0.810804,1.570812 -0.406344,0.675584 -0.881188,1.305382 -1.408639,1.890173 -0.379438,0.395012 -0.780648,0.768679 -1.193455,1.128438 0,0 -1.19146,0.482555 -1.19146,0.482555 l 0,0 c 0.427109,-0.357217 0.838474,-0.7339 1.232505,-1.127323 0.524812,-0.570784 0.997544,-1.186831 1.394593,-1.854191 0.291074,-0.506427 0.566136,-1.019375 0.808244,-1.551423 0.1927,-0.457931 0.365961,-0.92265 0.438432,-1.417222 0.06694,-0.356709 0.156265,-0.716518 0.123625,-1.081818 0,0 1.18167,-0.60209 1.18167,-0.60209 z"
       inkscape:connector-curvature="0" />
    <path
       style="fill:#ffff00"
       id="path3969"
       d="m 17.573536,19.754162 c 0.114367,0.286706 0.191392,0.585659 0.269895,0.883536 0.09166,0.36028 0.217935,0.709986 0.322983,1.066381 0.101337,0.339818 0.154203,0.692006 0.212002,1.041354 0.02925,0.08883 0.0375,0.360286 0.175122,0.3796 0.03543,0.005 0.16957,-0.04724 0.190216,-0.05445 0.539889,-0.302215 -0.560198,0.326202 -0.848556,0.473869 -0.06125,0.03136 0.109634,-0.08329 0.162109,-0.127807 0.06164,-0.05229 0.120376,-0.10792 0.180059,-0.162437 0.137752,-0.125828 0.307353,-0.284585 0.442653,-0.410683 0.439862,-0.427711 0.864069,-0.871421 1.27388,-1.327935 0.31986,-0.349185 0.58181,-0.742606 0.848529,-1.131926 0.168591,-0.248532 0.343972,-0.49221 0.435665,-0.78051 0.13059,-0.515371 -0.850359,-0.288921 1.206935,-0.551353 0.09384,-0.01197 -0.04189,0.184563 -0.05939,0.277536 -0.08404,0.446411 -0.08119,0.492188 -0.142098,0.979888 -0.140542,1.373024 -0.165156,2.754318 -0.168831,4.133422 0.003,0.618885 0.0137,1.237693 0.02372,1.856491 -0.01903,0.319742 0.09295,0.594693 0.266554,0.854964 0.19591,0.268009 0.473961,0.460953 0.754461,0.631958 0.268667,0.148049 0.579095,0.174175 0.878914,0.141509 0.07698,-0.02452 0.15621,-0.04283 0.23093,-0.07354 0.100966,-0.0415 0.19824,-0.09171 0.294828,-0.142577 0.120958,-0.0637 0.476731,-0.267871 0.357503,-0.200984 -1.056507,0.592707 -0.680051,0.390824 -0.199732,0.09448 0.139389,-0.086 0.276642,-0.175415 0.414963,-0.263122 0.5564,-0.381708 1.133726,-0.739707 1.620779,-1.210245 0.214992,-0.258753 0.433432,-0.532385 0.552276,-0.850744 0,0 1.188637,-0.5604 1.188637,-0.5604 l 0,0 c -0.09407,0.348544 -0.34221,0.629631 -0.548869,0.917867 -0.489015,0.49861 -1.088564,0.860142 -1.660151,1.255287 -0.76778,0.491159 -1.552251,0.947067 -2.342717,1.403099 -0.20384,0.117598 -0.470018,0.263301 -0.697921,0.341402 -0.0835,0.02862 -0.171812,0.04059 -0.257718,0.06088 -0.325454,0.0084 -0.651992,-0.02283 -0.931628,-0.205194 -0.288497,-0.190425 -0.574818,-0.394836 -0.778626,-0.679172 -0.192789,-0.275338 -0.32484,-0.582096 -0.299405,-0.925787 0.0084,-0.63175 0.02392,-1.263347 0.04656,-1.894767 0.04194,-1.380384 0.07403,-2.761576 0.159124,-4.140147 0.0348,-0.443592 0.03876,-0.549139 0.08527,-0.961736 0.0097,-0.08563 -0.0367,-0.206061 0.03327,-0.256362 0.374983,-0.269589 0.823897,-0.418421 1.224633,-0.64799 0.01449,-0.0083 -0.02621,-0.04137 -0.03932,-0.03104 -0.02264,0.01785 -0.0173,0.055 -0.02596,0.0825 -0.08217,0.322313 -0.244118,0.558201 -0.435508,0.827576 -0.274858,0.391389 -0.530724,0.796913 -0.854088,1.151953 -0.413179,0.458713 -0.839339,0.905021 -1.276833,1.340728 -0.644772,0.612261 -1.255656,1.249505 -2.163892,1.502582 -0.04452,0.0022 -0.08943,0.01295 -0.133546,0.0066 -0.249968,-0.03579 -0.29804,-0.308587 -0.336828,-0.512664 -0.05042,-0.345329 -0.106168,-0.691808 -0.198663,-1.028554 -0.107431,-0.356821 -0.229115,-0.708463 -0.329431,-1.067272 -0.07624,-0.284312 -0.141324,-0.574465 -0.270497,-0.840866 0,0 1.147747,-0.665229 1.147747,-0.665229 z"
       inkscape:connector-curvature="0" />
  </g>
</svg>
